<?xml version="1.0" standalone="no"?>
<!DOCTYPE svg PUBLIC "-//W3C//DTD SVG 20010904//EN"
 "http://www.w3.org/TR/2001/REC-SVG-20010904/DTD/svg10.dtd">
<svg version="1.0" xmlns="http://www.w3.org/2000/svg"
 width="512.000000pt" height="512.000000pt" viewBox="0 0 512.000000 512.000000"
 preserveAspectRatio="xMidYMid meet">
<metadata>
Created by potrace 1.14, written by Peter Selinger 2001-2017
</metadata>
<g transform="translate(0.000000,512.000000) scale(0.100000,-0.100000)"
fill="#000000" stroke="none">
<path d="M3248 5085 c-3 -3 -16 -8 -29 -10 -13 -3 -33 -9 -44 -14 -11 -5 -39
-17 -62 -27 -24 -10 -43 -21 -43 -26 0 -4 -5 -8 -11 -8 -14 0 -75 -49 -135
-108 -43 -41 -109 -126 -143 -184 -35 -57 -101 -198 -101 -213 0 -7 -4 -16 -9
-19 -5 -3 -14 -25 -20 -48 -8 -31 -30 -63 -78 -114 -38 -39 -93 -99 -123 -134
-30 -34 -63 -71 -72 -81 -10 -11 -18 -24 -18 -30 0 -5 -4 -7 -10 -4 -5 3 -10
2 -10 -3 0 -5 -27 -41 -60 -80 -33 -40 -60 -74 -60 -78 0 -3 -12 -19 -27 -34
-43 -45 -53 -58 -53 -70 0 -5 -3 -10 -7 -10 -5 0 -19 -17 -33 -38 -14 -20 -31
-41 -38 -45 -7 -5 -10 -12 -7 -18 4 -5 2 -9 -4 -9 -5 0 -25 -25 -44 -55 -19
-30 -37 -52 -41 -48 -3 3 -6 -1 -6 -10 0 -9 -4 -17 -10 -17 -5 0 -10 -4 -10
-9 0 -8 -126 -199 -139 -211 -3 -3 -11 -14 -17 -25 -19 -33 -123 -199 -132
-210 -4 -5 -25 -39 -45 -75 -21 -36 -42 -72 -47 -80 -21 -32 -140 -253 -140
-260 0 -5 -3 -10 -7 -12 -10 -4 -133 -253 -133 -267 0 -6 -4 -11 -10 -11 -5 0
-9 -3 -8 -7 1 -5 -13 -39 -31 -76 -28 -59 -51 -111 -56 -127 -1 -3 -12 -27
-24 -55 -13 -27 -32 -72 -42 -100 -11 -27 -25 -61 -31 -75 -12 -27 -14 -33
-51 -135 -14 -38 -27 -77 -29 -85 -2 -8 -5 -17 -8 -20 -11 -11 -50 -148 -50
-178 0 -42 58 -101 92 -94 15 3 3 -20 -27 -52 -16 -18 -70 -77 -120 -132 -49
-54 -102 -111 -118 -126 -15 -15 -27 -29 -27 -32 0 -2 -19 -25 -43 -49 -23
-25 -70 -76 -103 -113 -83 -93 -125 -138 -277 -302 -44 -49 -47 -55 -47 -107
0 -32 4 -55 11 -55 5 0 8 -4 5 -8 -8 -13 55 -31 94 -27 71 8 115 17 127 27 7
5 17 7 23 3 5 -3 16 -3 22 2 7 4 22 9 33 11 28 5 50 10 53 12 3 3 10 5 57 15
51 12 46 10 75 22 34 14 80 24 80 19 0 -5 -11 -33 -36 -91 -101 -240 -132
-339 -122 -386 11 -50 -1 -49 469 -49 302 0 439 3 439 11 0 5 4 8 9 5 5 -3 18
16 29 42 11 26 45 100 76 165 31 64 56 119 56 122 0 3 7 20 17 38 9 17 16 35
15 40 -1 4 3 7 8 7 6 0 10 4 10 9 0 5 23 57 50 116 28 59 50 110 50 114 0 4 6
8 13 9 13 0 27 4 107 27 74 21 93 26 109 28 8 1 24 -25 41 -65 15 -38 26 -68
24 -68 -2 0 8 -25 21 -57 26 -57 25 -93 -1 -93 -8 0 -14 -4 -14 -9 0 -5 -6
-11 -12 -13 -30 -7 -309 -182 -323 -201 -23 -32 -19 -91 8 -122 22 -26 90 -41
112 -24 6 4 26 16 47 27 20 11 104 62 187 112 146 88 153 91 181 78 17 -7 30
-15 30 -18 0 -3 -13 -14 -30 -25 -49 -33 -60 -102 -24 -146 39 -48 92 -45 185
12 64 38 78 43 135 43 70 1 86 12 104 76 7 27 19 40 46 52 l36 16 149 -74
c163 -81 197 -88 242 -51 22 17 29 31 30 67 4 68 6 66 -245 191 -98 49 -123
71 -119 101 1 5 -4 8 -11 8 -6 0 -8 3 -5 6 3 4 1 16 -5 28 -14 24 -13 21 -23
64 -4 17 -11 32 -16 32 -5 0 -8 3 -7 8 3 9 -19 76 -37 117 -7 17 -20 49 -28
73 -14 39 -13 42 3 42 24 0 70 45 70 70 0 11 3 20 8 20 4 0 8 10 9 23 2 24 10
62 13 62 1 0 3 12 4 26 2 14 6 31 11 38 7 12 13 46 18 94 1 9 4 17 8 17 3 0
10 19 14 43 5 23 9 44 9 47 1 3 24 95 51 205 27 110 53 202 57 203 5 2 6 7 4
11 -3 4 21 30 52 57 119 102 381 354 368 354 -3 0 2 8 12 18 37 40 79 90 121
147 25 33 47 62 51 65 14 12 150 220 150 229 0 6 3 11 8 11 4 0 12 10 18 23 6
12 39 76 73 142 33 66 61 128 61 138 0 9 5 17 12 17 6 0 9 3 5 6 -3 4 0 23 8
43 7 20 16 45 20 56 4 11 9 29 11 40 1 11 7 38 12 61 5 23 8 90 6 150 -2 113
-4 131 -17 152 -5 6 -5 17 -2 22 3 6 2 10 -3 10 -6 0 -13 11 -16 25 -14 54
-86 139 -181 213 -16 12 -24 22 -17 22 7 0 11 3 10 8 -3 14 14 62 23 62 5 0 9
7 9 15 0 15 55 122 95 185 43 68 127 168 143 171 13 3 47 8 97 14 66 9 377 14
390 7 6 -4 19 -8 30 -10 25 -5 49 -10 55 -13 23 -9 80 -2 103 14 24 16 27 24
27 76 0 45 -4 62 -20 76 -11 10 -18 20 -16 23 7 6 -193 202 -206 202 -4 0 -27
14 -52 30 -56 38 -242 125 -259 121 -4 0 -23 5 -42 13 -19 8 -35 13 -35 11 0
-2 -18 2 -40 10 -45 16 -40 15 -78 15 -18 0 -43 14 -72 40 -118 107 -232 167
-390 206 -53 13 -370 20 -382 9z m306 -190 c16 -3 36 -10 45 -14 9 -5 19 -9
24 -10 50 -5 166 -63 218 -108 41 -36 69 -65 69 -72 0 -12 42 -32 73 -36 18
-3 43 -7 57 -11 14 -3 34 -7 45 -9 11 -2 22 -4 25 -6 3 -1 10 -3 15 -4 6 -1
17 -4 25 -7 8 -3 40 -13 70 -23 73 -23 210 -86 210 -97 0 -4 6 -8 13 -8 8 0
22 -9 32 -21 19 -20 19 -20 -8 -10 -19 8 -27 7 -27 0 0 -8 -4 -8 -13 0 -8 6
-16 9 -19 6 -3 -3 -43 -8 -89 -10 -88 -6 -154 -12 -154 -15 0 -1 -19 -3 -42
-5 -23 -2 -57 -8 -76 -14 -32 -11 -97 -72 -140 -131 -95 -134 -181 -282 -192
-329 -4 -17 -11 -31 -17 -31 -6 0 -8 -3 -5 -6 3 -4 1 -16 -5 -28 -7 -11 -13
-25 -14 -31 -1 -5 -9 -32 -18 -59 -17 -51 -15 -108 6 -134 7 -7 32 -24 57 -37
162 -83 220 -227 170 -425 -24 -94 -22 -88 -42 -134 -9 -21 -17 -40 -17 -41 0
-20 -124 -250 -147 -273 -7 -7 -13 -20 -13 -28 0 -8 -4 -14 -10 -14 -5 0 -10
-4 -10 -10 0 -5 -21 -39 -47 -75 -27 -37 -52 -74 -58 -83 -5 -10 -12 -19 -15
-22 -3 -3 -30 -36 -60 -75 -60 -76 -106 -127 -115 -124 -5 1 -87 -11 -110 -17
-91 -22 -360 -54 -580 -69 -44 -3 -101 -7 -127 -9 -27 -2 -48 -1 -48 1 0 12
56 103 63 103 5 0 5 5 2 10 -3 6 -1 10 5 10 6 0 9 4 6 9 -3 5 1 11 9 15 8 3
15 10 15 15 0 5 40 73 90 150 49 78 86 141 82 141 -4 0 -2 4 4 8 5 4 20 24 33
45 26 43 25 107 -3 135 -16 16 -114 34 -118 21 -5 -14 -233 -145 -323 -186
-86 -40 -274 -113 -298 -117 -7 -1 -16 -4 -22 -8 -5 -3 -26 -9 -45 -13 -19 -4
-41 -12 -47 -17 -7 -6 -13 -8 -13 -5 0 3 -27 -3 -60 -13 -33 -10 -60 -16 -60
-14 0 3 -13 -2 -30 -11 -23 -12 -30 -12 -30 -3 0 9 -3 9 -8 2 -7 -10 -203 -56
-210 -49 -2 2 15 39 39 82 23 43 54 101 68 128 14 28 29 52 33 53 5 2 8 8 8
14 0 17 268 461 289 478 3 3 15 21 25 40 11 19 25 41 32 47 7 7 22 29 35 50
13 21 27 43 31 48 5 6 38 51 74 100 76 105 95 131 149 199 21 28 43 56 47 61
4 6 25 31 45 56 21 25 52 64 70 85 17 22 44 53 60 71 15 18 51 58 78 89 28 32
82 91 122 133 56 59 75 87 89 130 9 31 19 61 23 66 3 6 6 13 6 16 0 11 50 114
58 120 5 3 9 10 9 15 1 18 21 54 30 54 5 0 7 4 4 9 -4 5 -3 11 1 13 5 1 20 21
35 43 30 44 118 138 118 127 0 -4 5 1 11 11 5 9 17 17 24 17 8 0 15 4 15 8 0
11 62 41 130 63 54 17 186 19 264 4z m-1144 -2405 c-7 -16 -16 -30 -21 -30 -5
0 -9 -7 -9 -15 0 -8 -4 -15 -10 -15 -5 0 -10 -6 -10 -14 0 -8 -6 -21 -13 -28
-7 -7 -37 -53 -67 -103 -40 -67 -84 -120 -174 -211 -67 -66 -139 -133 -161
-150 -22 -16 -42 -31 -45 -34 -3 -3 -22 -16 -42 -30 -21 -14 -38 -28 -38 -32
0 -5 -4 -8 -8 -8 -5 0 -45 -22 -89 -48 -110 -66 -280 -149 -324 -158 -9 -2
-37 -12 -63 -24 -28 -12 -44 -15 -40 -7 6 9 5 9 -7 0 -19 -16 -89 -25 -89 -12
0 6 -4 8 -9 5 -5 -3 -14 1 -21 9 -9 11 -6 30 15 92 15 43 34 90 41 106 8 15
12 27 8 27 -4 0 -1 7 6 15 7 8 9 15 4 15 -5 0 -4 4 2 8 5 4 18 30 28 57 41
111 130 311 145 327 9 9 34 19 56 22 22 3 51 8 65 11 14 3 41 8 60 11 19 4 71
15 115 26 44 10 92 21 107 23 15 2 36 9 46 14 11 6 22 8 25 5 3 -3 12 -2 19 2
7 5 18 9 23 11 6 1 21 5 35 8 14 4 31 7 38 7 6 1 12 4 12 8 0 3 8 6 18 7 39 3
348 115 366 134 16 15 19 1 6 -31z m710 -398 c0 -2 -19 -21 -42 -41 -23 -20
-53 -47 -67 -60 -14 -13 -43 -37 -65 -55 -21 -17 -57 -48 -80 -68 -22 -21 -49
-40 -58 -43 -10 -4 -18 -10 -18 -15 0 -5 -12 -16 -27 -24 -16 -8 -42 -28 -60
-43 -54 -48 -68 -59 -111 -85 -23 -13 -39 -28 -35 -31 3 -4 1 -7 -6 -7 -10 0
-66 -34 -81 -50 -3 -3 -39 -27 -80 -55 -41 -27 -81 -55 -87 -64 -7 -8 -13 -12
-13 -8 0 4 -26 -9 -58 -30 -157 -103 -548 -321 -579 -324 -5 0 -16 -8 -25 -16
-10 -9 -18 -13 -18 -9 0 4 -13 -2 -30 -14 -17 -12 -30 -19 -30 -16 0 3 -15 -3
-33 -13 -36 -20 -311 -138 -387 -166 -193 -71 -406 -140 -459 -150 -21 -4 -17
4 30 52 30 31 59 62 64 68 27 32 165 184 202 222 23 24 40 43 38 43 -2 0 16
19 38 43 23 24 71 76 107 117 90 103 108 117 165 131 28 7 52 14 55 14 3 1 12
4 20 8 8 3 47 16 85 29 39 12 72 26 73 31 2 4 10 7 19 7 17 0 216 100 267 135
20 14 36 21 36 17 0 -4 4 -2 8 4 4 6 36 30 72 54 36 24 67 46 70 49 3 3 28 24
55 46 67 53 125 106 208 192 70 71 70 71 126 72 131 2 327 14 431 26 19 3 62
7 95 10 33 3 83 9 110 13 59 9 75 10 75 4z m-302 -614 c-16 -62 -31 -122 -33
-133 -1 -11 -5 -27 -9 -35 -3 -8 -8 -26 -10 -40 -3 -14 -10 -43 -16 -65 -6
-22 -12 -48 -15 -58 -2 -9 -6 -21 -9 -26 -6 -9 -75 -29 -131 -38 -16 -3 -34
-6 -39 -6 -10 -2 -22 34 -29 90 -3 21 -8 45 -11 53 -6 17 -17 75 -19 104 -1
12 15 31 48 54 28 19 52 39 53 44 2 4 8 8 14 8 8 0 41 22 93 63 53 41 131 97
137 97 3 0 -7 -51 -24 -112z m-492 -305 c3 -14 11 -52 18 -83 17 -70 15 -73
-44 -85 -8 -2 -16 -4 -17 -5 -2 -2 -7 -4 -13 -5 -5 -1 -11 -3 -12 -5 -2 -1
-10 -3 -18 -5 -8 -2 -55 -15 -105 -29 -49 -14 -91 -23 -94 -21 -2 3 5 24 17
48 11 23 20 45 19 48 -1 3 5 14 13 24 8 9 19 27 25 38 5 11 35 35 65 53 30 18
60 38 67 43 7 6 16 11 21 11 5 0 15 7 23 16 11 14 13 14 21 -1 5 -9 12 -28 14
-42z m-514 -255 c-10 -18 -30 -61 -46 -96 -38 -87 -144 -311 -161 -343 -8 -14
-12 -29 -8 -33 3 -3 2 -6 -4 -6 -5 0 -16 -18 -23 -40 -7 -22 -17 -40 -22 -40
-4 0 -8 -7 -8 -15 0 -8 -14 -44 -32 -79 l-32 -65 -273 -1 c-155 0 -273 3 -273
8 0 5 9 31 21 58 26 63 30 73 69 169 18 44 37 91 43 105 5 14 11 30 13 35 7
31 25 65 34 66 15 2 21 4 55 18 17 6 50 19 75 29 25 9 56 22 69 29 14 6 28 10
33 7 4 -3 8 0 8 5 0 6 8 11 18 11 10 0 22 4 28 8 5 5 27 16 50 25 61 23 220
97 299 139 38 20 73 37 77 38 4 0 0 -15 -10 -32z m854 -151 c9 -29 23 -64 30
-79 8 -15 16 -35 17 -45 2 -10 7 -25 10 -33 18 -43 30 -76 31 -82 1 -3 4 -10
9 -14 14 -14 6 -24 -48 -60 l-55 -37 -98 48 -98 48 -27 76 c-16 42 -32 85 -37
96 -21 51 -40 107 -40 120 0 8 15 17 38 22 47 9 42 8 76 22 16 6 31 9 34 7 2
-3 13 -1 24 5 11 6 32 13 46 15 15 3 29 7 31 10 7 6 36 -55 57 -119z"/>
<path d="M3549 4590 c-40 -11 -70 -30 -64 -40 3 -5 2 -11 -3 -14 -18 -11 -12
-71 10 -99 37 -45 123 -47 152 -2 16 24 28 95 17 95 -3 0 -11 10 -16 22 -13
28 -62 47 -96 38z"/>
</g>
</svg>
